# xmcd
#
# Track frame offsets:
#  183
#  7370
#  26240
#  40208
#  56795
#  76840
#  85360
#  100868
#  115335
#  125798
#  136720
#  145773
#
# Disc length: 2222 seconds
#
# Revision: 0
# Processed by: cddbd v1.5.1PL2 Copyright (c) Steve Scherf et al.
# Submitted via: Collectorz.com_Music_Collector 6.11
#
DISCID=a708ac0c
DTITLE=Various Artist - Forever Christmas
DYEAR=1900
DGENRE=Christmas
TTITLE0=We Wish You A Merry Christmas - Halle Orchestra and Choir conducted by Maurice Handford
TTITLE1=O Come All Ye Faithful - Pro Arte Orchestra
TTITLE2=Once In Royal David's City - Clare College Singers and Orchestra conducted by John Rutter
TTITLE3=O Little Town Of Bethlehem - Clare College Singers and Orchestra conducted by John Rutter with Simon Vaughan
TTITLE4=God Rest Ye Merry, Gentlemen - Pro Arte Orchestra
TTITLE5=Ding Dong Merrily On High - The Bach Choir
TTITLE6=Walking In The Air - Aled Jones
TTITLE7=The Christmas Song - Nat King Cole
TTITLE8=Santa Claus Is Coming To Town - Peggy Lee
TTITLE9=Gaudete - Steeleye Span
TTITLE10=Little Saint Nick - The Beach Boys
TTITLE11=I Wish It Could Be Christmas Everyday - Wizzard
EXTD=
EXTT0=
EXTT1=
EXTT2=
EXTT3=
EXTT4=
EXTT5=
EXTT6=
EXTT7=
EXTT8=
EXTT9=
EXTT10=
EXTT11=
PLAYORDER=
